<svg width="1158" height="600" style="overflow: hidden;" aria-label="A chart."><defs id="_ABSTRACT_RENDERER_ID_4765"></defs><rect x="0" y="0" width="1158" height="600" stroke="none" stroke-width="0" fill="#ffffff"></rect><g><rect x="694" y="115" width="267" height="371" stroke="none" stroke-width="0" fill-opacity="0" fill="#ffffff"></rect><g column-id="university teacher"><rect x="694" y="115" width="267" height="15" stroke="none" stroke-width="0" fill-opacity="0" fill="#ffffff"></rect><g><text text-anchor="start" x="715" y="127.75" font-family="Arial" font-size="15" stroke="none" stroke-width="0" fill="#222222">university teacher</text></g><circle cx="701.5" cy="122.5" r="7.5" stroke="none" stroke-width="0" fill="#3366cc"></circle></g><g column-id="politician"><rect x="694" y="139" width="267" height="15" stroke="none" stroke-width="0" fill-opacity="0" fill="#ffffff"></rect><g><text text-anchor="start" x="715" y="151.75" font-family="Arial" font-size="15" stroke="none" stroke-width="0" fill="#222222">politician</text></g><circle cx="701.5" cy="146.5" r="7.5" stroke="none" stroke-width="0" fill="#dc3912"></circle></g><g column-id="botanist"><rect x="694" y="163" width="267" height="15" stroke="none" stroke-width="0" fill-opacity="0" fill="#ffffff"></rect><g><text text-anchor="start" x="715" y="175.75" font-family="Arial" font-size="15" stroke="none" stroke-width="0" fill="#222222">botanist</text></g><circle cx="701.5" cy="170.5" r="7.5" stroke="none" stroke-width="0" fill="#ff9900"></circle></g><g column-id="jurist"><rect x="694" y="187" width="267" height="15" stroke="none" stroke-width="0" fill-opacity="0" fill="#ffffff"></rect><g><text text-anchor="start" x="715" y="199.75" font-family="Arial" font-size="15" stroke="none" stroke-width="0" fill="#222222">jurist</text></g><circle cx="701.5" cy="194.5" r="7.5" stroke="none" stroke-width="0" fill="#109618"></circle></g><g column-id="writer"><rect x="694" y="211" width="267" height="15" stroke="none" stroke-width="0" fill-opacity="0" fill="#ffffff"></rect><g><text text-anchor="start" x="715" y="223.75" font-family="Arial" font-size="15" stroke="none" stroke-width="0" fill="#222222">writer</text></g><circle cx="701.5" cy="218.5" r="7.5" stroke="none" stroke-width="0" fill="#990099"></circle></g><g column-id="theologian"><rect x="694" y="235" width="267" height="15" stroke="none" stroke-width="0" fill-opacity="0" fill="#ffffff"></rect><g><text text-anchor="start" x="715" y="247.75" font-family="Arial" font-size="15" stroke="none" stroke-width="0" fill="#222222">theologian</text></g><circle cx="701.5" cy="242.5" r="7.5" stroke="none" stroke-width="0" fill="#0099c6"></circle></g><g column-id="art historian"><rect x="694" y="259" width="267" height="15" stroke="none" stroke-width="0" fill-opacity="0" fill="#ffffff"></rect><g><text text-anchor="start" x="715" y="271.75" font-family="Arial" font-size="15" stroke="none" stroke-width="0" fill="#222222">art historian</text></g><circle cx="701.5" cy="266.5" r="7.5" stroke="none" stroke-width="0" fill="#dd4477"></circle></g><g column-id="physician"><rect x="694" y="283" width="267" height="15" stroke="none" stroke-width="0" fill-opacity="0" fill="#ffffff"></rect><g><text text-anchor="start" x="715" y="295.75" font-family="Arial" font-size="15" stroke="none" stroke-width="0" fill="#222222">physician</text></g><circle cx="701.5" cy="290.5" r="7.5" stroke="none" stroke-width="0" fill="#66aa00"></circle></g><g column-id="physicist"><rect x="694" y="307" width="267" height="15" stroke="none" stroke-width="0" fill-opacity="0" fill="#ffffff"></rect><g><text text-anchor="start" x="715" y="319.75" font-family="Arial" font-size="15" stroke="none" stroke-width="0" fill="#222222">physicist</text></g><circle cx="701.5" cy="314.5" r="7.5" stroke="none" stroke-width="0" fill="#b82e2e"></circle></g><g column-id="lawyer"><rect x="694" y="331" width="267" height="15" stroke="none" stroke-width="0" fill-opacity="0" fill="#ffffff"></rect><g><text text-anchor="start" x="715" y="343.75" font-family="Arial" font-size="15" stroke="none" stroke-width="0" fill="#222222">lawyer</text></g><circle cx="701.5" cy="338.5" r="7.5" stroke="none" stroke-width="0" fill="#316395"></circle></g><g column-id="historian"><rect x="694" y="355" width="267" height="15" stroke="none" stroke-width="0" fill-opacity="0" fill="#ffffff"></rect><g><text text-anchor="start" x="715" y="367.75" font-family="Arial" font-size="15" stroke="none" stroke-width="0" fill="#222222">historian</text></g><circle cx="701.5" cy="362.5" r="7.5" stroke="none" stroke-width="0" fill="#994499"></circle></g><g column-id="chemist"><rect x="694" y="379" width="267" height="15" stroke="none" stroke-width="0" fill-opacity="0" fill="#ffffff"></rect><g><text text-anchor="start" x="715" y="391.75" font-family="Arial" font-size="15" stroke="none" stroke-width="0" fill="#222222">chemist</text></g><circle cx="701.5" cy="386.5" r="7.5" stroke="none" stroke-width="0" fill="#22aa99"></circle></g><g column-id="biologist"><rect x="694" y="403" width="267" height="15" stroke="none" stroke-width="0" fill-opacity="0" fill="#ffffff"></rect><g><text text-anchor="start" x="715" y="415.75" font-family="Arial" font-size="15" stroke="none" stroke-width="0" fill="#222222">biologist</text></g><circle cx="701.5" cy="410.5" r="7.5" stroke="none" stroke-width="0" fill="#aaaa11"></circle></g><g column-id="diplomat"><rect x="694" y="427" width="267" height="15" stroke="none" stroke-width="0" fill-opacity="0" fill="#ffffff"></rect><g><text text-anchor="start" x="715" y="439.75" font-family="Arial" font-size="15" stroke="none" stroke-width="0" fill="#222222">diplomat</text></g><circle cx="701.5" cy="434.5" r="7.5" stroke="none" stroke-width="0" fill="#6633cc"></circle></g><path d="M709,486L702,471L694,486Z" stroke="none" stroke-width="0" fill="#cccccc"></path><g><text text-anchor="middle" x="725" y="483.75" font-family="Arial" font-size="15" stroke="none" stroke-width="0" fill="#0011cc">1/6</text></g><path d="M741,471L756,471L749,486Z" stroke="none" stroke-width="0" fill="#0011cc"></path></g><g><path d="M619,282.5L619,319.5A185,148,0,0,1,618.9966666311049,320.38844507039107L618.9966666311049,283.38844507039107A185,148,0,0,0,619,282.5" stroke="#264d99" stroke-width="1" fill="#264d99"></path><path d="M434,282.5L434,319.5L618.9966666311049,320.38844507039107L618.9966666311049,283.38844507039107" stroke="#264d99" stroke-width="1" fill="#264d99"></path><path d="M434,282.5L434,134.5A185,148,0,0,1,618.9966666311049,283.38844507039107L434,282.5A0,0,0,0,0,434,282.5" stroke="#3366cc" stroke-width="1" fill="#3366cc"></path><text text-anchor="start" x="518.8415027645691" y="205.8290226606458" font-family="Arial" font-size="15" stroke="none" stroke-width="0" fill="#ffffff">25.1%</text></g><g><path d="M618.9966666311049,283.38844507039107L618.9966666311049,320.38844507039107A185,148,0,0,1,590.1212736024477,398.9023593755236L590.1212736024477,361.9023593755236A185,148,0,0,0,618.9966666311049,283.38844507039107" stroke="#a52b0e" stroke-width="1" fill="#a52b0e"></path><path d="M434,282.5L434,319.5L590.1212736024477,398.9023593755236L590.1212736024477,361.9023593755236" stroke="#a52b0e" stroke-width="1" fill="#a52b0e"></path><path d="M434,282.5L618.9966666311049,283.38844507039107A185,148,0,0,1,590.1212736024477,361.9023593755236L434,282.5A0,0,0,0,0,434,282.5" stroke="#dc3912" stroke-width="1" fill="#dc3912"></path><text text-anchor="start" x="562.7482038179301" y="321.18372389803477" font-family="Arial" font-size="15" stroke="none" stroke-width="0" fill="#ffffff">8.9%</text></g><g><path d="M590.1212736024477,361.9023593755236L590.1212736024477,398.9023593755236A185,148,0,0,1,560.9646754256896,427.1437715996218L560.9646754256896,390.1437715996218A185,148,0,0,0,590.1212736024477,361.9023593755236" stroke="#bf7300" stroke-width="1" fill="#bf7300"></path><path d="M434,282.5L434,319.5L560.9646754256896,427.1437715996218L560.9646754256896,390.1437715996218" stroke="#bf7300" stroke-width="1" fill="#bf7300"></path><path d="M434,282.5L590.1212736024477,361.9023593755236A185,148,0,0,1,560.9646754256896,390.1437715996218L434,282.5A0,0,0,0,0,434,282.5" stroke="#ff9900" stroke-width="1" fill="#ff9900"></path></g><g><path d="M560.9646754256896,390.1437715996218L560.9646754256896,427.1437715996218A185,148,0,0,1,529.1586156129638,446.4200387636227L529.1586156129638,409.4200387636227A185,148,0,0,0,560.9646754256896,390.1437715996218" stroke="#0c7112" stroke-width="1" fill="#0c7112"></path><path d="M434,282.5L434,319.5L529.1586156129638,446.4200387636227L529.1586156129638,409.4200387636227" stroke="#0c7112" stroke-width="1" fill="#0c7112"></path><path d="M434,282.5L560.9646754256896,390.1437715996218A185,148,0,0,1,529.1586156129638,409.4200387636227L434,282.5A0,0,0,0,0,434,282.5" stroke="#109618" stroke-width="1" fill="#109618"></path></g><g><path d="M529.1586156129638,409.4200387636227L529.1586156129638,446.4200387636227A185,148,0,0,1,498.5089595296938,458.21085123325304L498.5089595296938,421.21085123325304A185,148,0,0,0,529.1586156129638,409.4200387636227" stroke="#730073" stroke-width="1" fill="#730073"></path><path d="M434,282.5L434,319.5L498.5089595296938,458.21085123325304L498.5089595296938,421.21085123325304" stroke="#730073" stroke-width="1" fill="#730073"></path><path d="M434,282.5L529.1586156129638,409.4200387636227A185,148,0,0,1,498.5089595296938,421.21085123325304L434,282.5A0,0,0,0,0,434,282.5" stroke="#990099" stroke-width="1" fill="#990099"></path></g><g><path d="M498.5089595296938,421.21085123325304L498.5089595296938,458.21085123325304A185,148,0,0,1,471.4975246427135,464.42797802090604L471.4975246427135,427.42797802090604A185,148,0,0,0,498.5089595296938,421.21085123325304" stroke="#007395" stroke-width="1" fill="#007395"></path><path d="M434,282.5L434,319.5L471.4975246427135,464.42797802090604L471.4975246427135,427.42797802090604" stroke="#007395" stroke-width="1" fill="#007395"></path><path d="M434,282.5L498.5089595296938,421.21085123325304A185,148,0,0,1,471.4975246427135,427.42797802090604L434,282.5A0,0,0,0,0,434,282.5" stroke="#0099c6" stroke-width="1" fill="#0099c6"></path></g><g><path d="M471.4975246427135,427.42797802090604L471.4975246427135,464.42797802090604A185,148,0,0,1,443.6205379776374,467.2997461410991L443.6205379776374,430.2997461410991A185,148,0,0,0,471.4975246427135,427.42797802090604" stroke="#a63359" stroke-width="1" fill="#a63359"></path><path d="M434,282.5L434,319.5L443.6205379776374,467.2997461410991L443.6205379776374,430.2997461410991" stroke="#a63359" stroke-width="1" fill="#a63359"></path><path d="M434,282.5L471.4975246427135,427.42797802090604A185,148,0,0,1,443.6205379776374,430.2997461410991L434,282.5A0,0,0,0,0,434,282.5" stroke="#dd4477" stroke-width="1" fill="#dd4477"></path></g><g><path d="M434,282.5L434,319.5L324.66162449723106,200.11458811418407L324.66162449723106,163.11458811418407" stroke="#999999" stroke-width="1" fill="#999999"></path><path d="M434,282.5L324.66162449723106,163.11458811418407A185,148,0,0,1,434,134.5L434,282.5A0,0,0,0,0,434,282.5" stroke="#cccccc" stroke-width="1" fill="#cccccc"></path><text text-anchor="start" x="365.707989002946" y="173.45344780934542" font-family="Arial" font-size="15" stroke="none" stroke-width="0" fill="#ffffff">10.1%</text></g><g><path d="M434,282.5L434,319.5L322.28681642231595,201.5300658915131L322.28681642231595,164.5300658915131" stroke="#4d2699" stroke-width="1" fill="#4d2699"></path><path d="M434,282.5L322.28681642231595,164.5300658915131A185,148,0,0,1,324.66162449723106,163.11458811418407L434,282.5A0,0,0,0,0,434,282.5" stroke="#6633cc" stroke-width="1" fill="#6633cc"></path></g><g><path d="M434,282.5L434,319.5L319.9406353296426,202.97577397023213L319.9406353296426,165.97577397023213" stroke="#80800d" stroke-width="1" fill="#80800d"></path><path d="M434,282.5L319.9406353296426,165.97577397023213A185,148,0,0,1,322.28681642231595,164.5300658915131L434,282.5A0,0,0,0,0,434,282.5" stroke="#aaaa11" stroke-width="1" fill="#aaaa11"></path></g><g><path d="M434,282.5L434,319.5L317.6236824381749,204.45134188144777L317.6236824381749,167.45134188144777" stroke="#1a8073" stroke-width="1" fill="#1a8073"></path><path d="M434,282.5L317.6236824381749,167.45134188144777A185,148,0,0,1,319.9406353296426,165.97577397023213L434,282.5A0,0,0,0,0,434,282.5" stroke="#22aa99" stroke-width="1" fill="#22aa99"></path></g><g><path d="M434,282.5L434,319.5L315.33655147702484,205.9563915045565L315.33655147702484,168.9563915045565" stroke="#733373" stroke-width="1" fill="#733373"></path><path d="M434,282.5L315.33655147702484,168.9563915045565A185,148,0,0,1,317.6236824381749,167.45134188144777L434,282.5A0,0,0,0,0,434,282.5" stroke="#994499" stroke-width="1" fill="#994499"></path></g><g><path d="M434,282.5L434,319.5L313.0798285333068,207.49053716413988L313.0798285333068,170.49053716413988" stroke="#254a70" stroke-width="1" fill="#254a70"></path><path d="M434,282.5L313.0798285333068,170.49053716413988A185,148,0,0,1,315.33655147702484,168.9563915045565L434,282.5A0,0,0,0,0,434,282.5" stroke="#316395" stroke-width="1" fill="#316395"></path></g><g><path d="M434,282.5L434,319.5L310.85409190195026,209.05338572879526L310.85409190195026,172.05338572879526" stroke="#8a2323" stroke-width="1" fill="#8a2323"></path><path d="M434,282.5L310.85409190195026,172.05338572879526A185,148,0,0,1,313.0798285333068,170.49053716413988L434,282.5A0,0,0,0,0,434,282.5" stroke="#b82e2e" stroke-width="1" fill="#b82e2e"></path></g><g><path d="M434,282.5L434,319.5L308.6599119375098,210.64453671187744L308.6599119375098,173.64453671187744" stroke="#4d8000" stroke-width="1" fill="#4d8000"></path><path d="M434,282.5L308.6599119375098,173.64453671187744A185,148,0,0,1,310.85409190195026,172.05338572879526L434,282.5A0,0,0,0,0,434,282.5" stroke="#66aa00" stroke-width="1" fill="#66aa00"></path></g><g><path d="M434,282.5L434,319.5L306.4978509080081,212.26358237412524L306.4978509080081,175.26358237412524" stroke="#a63359" stroke-width="1" fill="#a63359"></path><path d="M434,282.5L306.4978509080081,175.26358237412524A185,148,0,0,1,308.6599119375098,173.64453671187744L434,282.5A0,0,0,0,0,434,282.5" stroke="#dd4477" stroke-width="1" fill="#dd4477"></path></g><g><path d="M434,282.5L434,319.5L304.3684628508537,213.91010782814635L304.3684628508537,176.91010782814635" stroke="#007395" stroke-width="1" fill="#007395"></path><path d="M434,282.5L304.3684628508537,176.91010782814635A185,148,0,0,1,306.4978509080081,175.26358237412524L434,282.5A0,0,0,0,0,434,282.5" stroke="#0099c6" stroke-width="1" fill="#0099c6"></path></g><g><path d="M434,282.5L434,319.5L302.2722934308655,215.58369114473402L302.2722934308655,178.58369114473402" stroke="#730073" stroke-width="1" fill="#730073"></path><path d="M434,282.5L302.2722934308655,178.58369114473402A185,148,0,0,1,304.3684628508537,176.91010782814635L434,282.5A0,0,0,0,0,434,282.5" stroke="#990099" stroke-width="1" fill="#990099"></path></g><g><path d="M434,282.5L434,319.5L300.2098798004441,217.2839034609882L300.2098798004441,180.2839034609882" stroke="#0c7112" stroke-width="1" fill="#0c7112"></path><path d="M434,282.5L300.2098798004441,180.2839034609882A185,148,0,0,1,302.2722934308655,178.58369114473402L434,282.5A0,0,0,0,0,434,282.5" stroke="#109618" stroke-width="1" fill="#109618"></path></g><g><path d="M434,282.5L434,319.5L298.18175046192493,219.01030909021352L298.18175046192493,182.01030909021352" stroke="#bf7300" stroke-width="1" fill="#bf7300"></path><path d="M434,282.5L298.18175046192493,182.01030909021352A185,148,0,0,1,300.2098798004441,180.2839034609882L434,282.5A0,0,0,0,0,434,282.5" stroke="#ff9900" stroke-width="1" fill="#ff9900"></path></g><g><path d="M434,282.5L434,319.5L296.1884251321459,220.7624656335658L296.1884251321459,183.7624656335658" stroke="#a52b0e" stroke-width="1" fill="#a52b0e"></path><path d="M434,282.5L296.1884251321459,183.7624656335658A185,148,0,0,1,298.18175046192493,182.01030909021352L434,282.5A0,0,0,0,0,434,282.5" stroke="#dc3912" stroke-width="1" fill="#dc3912"></path></g><g><path d="M434,282.5L434,319.5L294.2304146092689,222.5399240934187L294.2304146092689,185.5399240934187" stroke="#264d99" stroke-width="1" fill="#264d99"></path><path d="M434,282.5L294.2304146092689,185.5399240934187A185,148,0,0,1,296.1884251321459,183.7624656335658L434,282.5A0,0,0,0,0,434,282.5" stroke="#3366cc" stroke-width="1" fill="#3366cc"></path></g><g><path d="M434,282.5L434,319.5L292.3082206418851,224.34222898842145L292.3082206418851,187.34222898842145" stroke="#57270d" stroke-width="1" fill="#57270d"></path><path d="M434,282.5L292.3082206418851,187.34222898842145A185,148,0,0,1,294.2304146092689,185.5399240934187L434,282.5A0,0,0,0,0,434,282.5" stroke="#743411" stroke-width="1" fill="#743411"></path></g><g><path d="M434,282.5L434,319.5L290.42233580043955,226.1689184702176L290.42233580043955,189.1689184702176" stroke="#09431a" stroke-width="1" fill="#09431a"></path><path d="M434,282.5L290.42233580043955,189.1689184702176A185,148,0,0,1,292.3082206418851,187.34222898842145L434,282.5A0,0,0,0,0,434,282.5" stroke="#0c5922" stroke-width="1" fill="#0c5922"></path></g><g><path d="M434,282.5L434,319.5L288.5732433510084,228.01952444179588L288.5732433510084,191.01952444179588" stroke="#8f7b0e" stroke-width="1" fill="#8f7b0e"></path><path d="M434,282.5L288.5732433510084,191.01952444179588A185,148,0,0,1,290.42233580043955,189.1689184702176L434,282.5A0,0,0,0,0,434,282.5" stroke="#bea413" stroke-width="1" fill="#bea413"></path></g><g><path d="M434,282.5L434,319.5L286.76141713145944,229.89357267744185L286.76141713145944,192.89357267744185" stroke="#4d6a15" stroke-width="1" fill="#4d6a15"></path><path d="M434,282.5L286.76141713145944,192.89357267744185A185,148,0,0,1,288.5732433510084,191.01952444179588L434,282.5A0,0,0,0,0,434,282.5" stroke="#668d1c" stroke-width="1" fill="#668d1c"></path></g><g><path d="M434,282.5L434,319.5L284.98732143002917,231.79058294426056L284.98732143002917,194.79058294426056" stroke="#20596a" stroke-width="1" fill="#20596a"></path><path d="M434,282.5L284.98732143002917,194.79058294426056A185,148,0,0,1,286.76141713145944,192.89357267744185L434,282.5A0,0,0,0,0,434,282.5" stroke="#2a778d" stroke-width="1" fill="#2a778d"></path></g><g><path d="M434,282.5L434,319.5L283.2514108663474,233.71006912523802L283.2514108663474,196.71006912523802" stroke="#7f930e" stroke-width="1" fill="#7f930e"></path><path d="M434,282.5L283.2514108663474,196.71006912523802A185,148,0,0,1,284.98732143002917,194.79058294426056L434,282.5A0,0,0,0,0,434,282.5" stroke="#a9c413" stroke-width="1" fill="#a9c413"></path></g><g><path d="M434,282.5L434,319.5L281.5541302749383,235.65153934381087L281.5541302749383,198.65153934381087" stroke="#754328" stroke-width="1" fill="#754328"></path><path d="M434,282.5L281.5541302749383,198.65153934381087A185,148,0,0,1,283.2514108663474,196.71006912523802L434,282.5A0,0,0,0,0,434,282.5" stroke="#9c5935" stroke-width="1" fill="#9c5935"></path></g><g><path d="M434,282.5L434,319.5L279.8959145912303,237.61449608991205L279.8959145912303,200.61449608991205" stroke="#b72877" stroke-width="1" fill="#b72877"></path><path d="M434,282.5L279.8959145912303,200.61449608991205A185,148,0,0,1,281.5541302749383,198.65153934381087L434,282.5A0,0,0,0,0,434,282.5" stroke="#f4359e" stroke-width="1" fill="#f4359e"></path></g><g><path d="M434,282.5L434,319.5L278.2771887401016,239.59843634745937L278.2771887401016,202.59843634745937" stroke="#8b0e62" stroke-width="1" fill="#8b0e62"></path><path d="M434,282.5L278.2771887401016,202.59843634745937A185,148,0,0,1,279.8959145912303,200.61449608991205L434,282.5A0,0,0,0,0,434,282.5" stroke="#b91383" stroke-width="1" fill="#b91383"></path></g><g><path d="M434,282.5L434,319.5L276.6983675269916,241.60285172325615L276.6983675269916,204.60285172325615" stroke="#11a118" stroke-width="1" fill="#11a118"></path><path d="M434,282.5L276.6983675269916,204.60285172325615A185,148,0,0,1,278.2771887401016,202.59843634745937L434,282.5A0,0,0,0,0,434,282.5" stroke="#16d620" stroke-width="1" fill="#16d620"></path></g><g><path d="M434,282.5L434,319.5L275.1598555316051,243.62722857726868L275.1598555316051,206.62722857726868" stroke="#89561a" stroke-width="1" fill="#89561a"></path><path d="M434,282.5L275.1598555316051,206.62722857726868A185,148,0,0,1,276.6983675269916,204.60285172325615L434,282.5A0,0,0,0,0,434,282.5" stroke="#b77322" stroke-width="1" fill="#b77322"></path></g><g><path d="M434,282.5L434,319.5L273.6620470042369,245.67104815424898L273.6620470042369,208.67104815424898" stroke="#2c2f81" stroke-width="1" fill="#2c2f81"></path><path d="M434,282.5L273.6620470042369,208.67104815424898A185,148,0,0,1,275.1598555316051,206.62722857726868L434,282.5A0,0,0,0,0,434,282.5" stroke="#3b3eac" stroke-width="1" fill="#3b3eac"></path></g><g><path d="M434,282.5L434,319.5L272.20532576474375,247.73378671666813L272.20532576474375,210.73378671666813" stroke="#40577d" stroke-width="1" fill="#40577d"></path><path d="M434,282.5L272.20532576474375,210.73378671666813A185,148,0,0,1,273.6620470042369,208.67104815424898L434,282.5A0,0,0,0,0,434,282.5" stroke="#5574a6" stroke-width="1" fill="#5574a6"></path></g><g><path d="M434,282.5L434,319.5L270.79006510418867,249.8149156789259L270.79006510418867,212.8149156789259" stroke="#266e4a" stroke-width="1" fill="#266e4a"></path><path d="M434,282.5L270.79006510418867,212.8149156789259A185,148,0,0,1,272.20532576474375,210.73378671666813L434,282.5A0,0,0,0,0,434,282.5" stroke="#329262" stroke-width="1" fill="#329262"></path></g><g><path d="M434,282.5L434,319.5L269.41662768918366,251.9139017428029L269.41662768918366,214.9139017428029" stroke="#4c0c4d" stroke-width="1" fill="#4c0c4d"></path><path d="M434,282.5L269.41662768918366,214.9139017428029A185,148,0,0,1,270.79006510418867,212.8149156789259L434,282.5A0,0,0,0,0,434,282.5" stroke="#651067" stroke-width="1" fill="#651067"></path></g><g><path d="M434,282.5L434,319.5L267.43565708822763,255.09468508704825L267.43565708822763,218.09468508704825" stroke="#680505" stroke-width="1" fill="#680505"></path><path d="M434,282.5L267.43565708822763,218.09468508704825A185,148,0,0,1,269.41662768918366,214.9139017428029L434,282.5A0,0,0,0,0,434,282.5" stroke="#8b0707" stroke-width="1" fill="#8b0707"></path></g><g><path d="M434,282.5L434,319.5L265.5507202844374,258.3126017507101L265.5507202844374,221.3126017507101" stroke="#ad5600" stroke-width="1" fill="#ad5600"></path><path d="M434,282.5L265.5507202844374,221.3126017507101A185,148,0,0,1,267.43565708822763,218.09468508704825L434,282.5A0,0,0,0,0,434,282.5" stroke="#e67300" stroke-width="1" fill="#e67300"></path></g><g><path d="M434,282.5L434,319.5L263.76290405086104,261.56579642219685L263.76290405086104,224.56579642219688" stroke="#4d2699" stroke-width="1" fill="#4d2699"></path><path d="M434,282.5L263.76290405086104,224.56579642219688A185,148,0,0,1,265.5507202844374,221.3126017507101L434,282.5A0,0,0,0,0,434,282.5" stroke="#6633cc" stroke-width="1" fill="#6633cc"></path></g><g><path d="M434,282.5L434,319.5L262.0732391650263,264.8523934501428L262.0732391650263,227.85239345014278" stroke="#80800d" stroke-width="1" fill="#80800d"></path><path d="M434,282.5L262.0732391650263,227.85239345014278A185,148,0,0,1,263.76290405086104,224.56579642219688L434,282.5A0,0,0,0,0,434,282.5" stroke="#aaaa11" stroke-width="1" fill="#aaaa11"></path></g><g><path d="M434,282.5L434,319.5L260.4826998146377,268.1704979248284L260.4826998146377,231.1704979248284" stroke="#1a8073" stroke-width="1" fill="#1a8073"></path><path d="M434,282.5L260.4826998146377,231.1704979248284A185,148,0,0,1,262.0732391650263,227.85239345014278L434,282.5A0,0,0,0,0,434,282.5" stroke="#22aa99" stroke-width="1" fill="#22aa99"></path></g><g><path d="M434,282.5L434,319.5L258.9922030359032,271.5181967707026L258.9922030359032,234.5181967707026" stroke="#733373" stroke-width="1" fill="#733373"></path><path d="M434,282.5L258.9922030359032,234.5181967707026A185,148,0,0,1,260.4826998146377,231.1704979248284L434,282.5A0,0,0,0,0,434,282.5" stroke="#994499" stroke-width="1" fill="#994499"></path></g><g><path d="M434,282.5L434,319.5L257.6026081848098,274.8935598493795L257.6026081848098,237.89355984937953" stroke="#254a70" stroke-width="1" fill="#254a70"></path><path d="M434,282.5L257.6026081848098,237.89355984937953A185,148,0,0,1,258.9922030359032,234.5181967707026L434,282.5A0,0,0,0,0,434,282.5" stroke="#316395" stroke-width="1" fill="#316395"></path></g><g><path d="M434,282.5L434,319.5L256.3147164416566,278.2946410724733L256.3147164416566,241.29464107247333" stroke="#8a2323" stroke-width="1" fill="#8a2323"></path><path d="M434,282.5L256.3147164416566,241.29464107247333A185,148,0,0,1,257.6026081848098,237.89355984937953L434,282.5A0,0,0,0,0,434,282.5" stroke="#b82e2e" stroke-width="1" fill="#b82e2e"></path></g><g><path d="M434,282.5L434,319.5L255.12927034912875,281.71947952362814L255.12927034912875,244.7194795236281" stroke="#4d8000" stroke-width="1" fill="#4d8000"></path><path d="M434,282.5L255.12927034912875,244.7194795236281A185,148,0,0,1,256.3147164416566,241.29464107247333L434,282.5A0,0,0,0,0,434,282.5" stroke="#66aa00" stroke-width="1" fill="#66aa00"></path></g><g><path d="M434,282.5L434,319.5L254.04695338417935,285.16610058909794L254.04695338417935,248.16610058909797" stroke="#a63359" stroke-width="1" fill="#a63359"></path><path d="M434,282.5L254.04695338417935,248.16610058909797A185,148,0,0,1,255.12927034912875,244.7194795236281L434,282.5A0,0,0,0,0,434,282.5" stroke="#dd4477" stroke-width="1" fill="#dd4477"></path></g><g><path d="M434,282.5L434,319.5L252.76535712354212,289.7920431243854L252.76535712354212,252.7920431243854" stroke="#007395" stroke-width="1" fill="#007395"></path><path d="M434,282.5L252.76535712354212,252.7920431243854A185,148,0,0,1,254.04695338417935,248.16610058909797L434,282.5A0,0,0,0,0,434,282.5" stroke="#0099c6" stroke-width="1" fill="#0099c6"></path></g><g><path d="M434,282.5L434,319.5L251.6695175788948,294.44843487412993L251.6695175788948,257.44843487412993" stroke="#730073" stroke-width="1" fill="#730073"></path><path d="M434,282.5L251.6695175788948,257.44843487412993A185,148,0,0,1,252.76535712354212,252.7920431243854L434,282.5A0,0,0,0,0,434,282.5" stroke="#990099" stroke-width="1" fill="#990099"></path></g><g><path d="M434,282.5L434,319.5L250.7605579326038,299.1305032627021L250.7605579326038,262.1305032627021" stroke="#0c7112" stroke-width="1" fill="#0c7112"></path><path d="M434,282.5L250.7605579326038,262.1305032627021A185,148,0,0,1,251.6695175788948,257.44843487412993L434,282.5A0,0,0,0,0,434,282.5" stroke="#109618" stroke-width="1" fill="#109618"></path></g><g><path d="M434,282.5L434,319.5L250.03940982420667,303.8334493971634L250.03940982420667,266.8334493971634" stroke="#bf7300" stroke-width="1" fill="#bf7300"></path><path d="M434,282.5L250.03940982420667,266.8334493971634A185,148,0,0,1,250.7605579326038,262.1305032627021L434,282.5A0,0,0,0,0,434,282.5" stroke="#ff9900" stroke-width="1" fill="#ff9900"></path></g><g><path d="M434,282.5L434,319.5L249.50681239552654,308.55245298589887L249.50681239552654,271.55245298589887" stroke="#a52b0e" stroke-width="1" fill="#a52b0e"></path><path d="M434,282.5L249.50681239552654,271.55245298589887A185,148,0,0,1,250.03940982420667,266.8334493971634L434,282.5A0,0,0,0,0,434,282.5" stroke="#dc3912" stroke-width="1" fill="#dc3912"></path></g><g><path d="M434,282.5L434,319.5L249.16331153308775,313.28267727918177L249.16331153308775,276.28267727918177" stroke="#264d99" stroke-width="1" fill="#264d99"></path><path d="M434,282.5L249.16331153308775,276.28267727918177A185,148,0,0,1,249.50681239552654,271.55245298589887L434,282.5A0,0,0,0,0,434,282.5" stroke="#3366cc" stroke-width="1" fill="#3366cc"></path></g><g><path d="M434,282.5L434,319.5L249.00925930860873,318.0192740266077L249.00925930860873,281.0192740266077" stroke="#57270d" stroke-width="1" fill="#57270d"></path><path d="M434,282.5L249.00925930860873,281.0192740266077A185,148,0,0,1,249.16331153308775,276.28267727918177L434,282.5A0,0,0,0,0,434,282.5" stroke="#743411" stroke-width="1" fill="#743411"></path></g><g><path d="M249.08332821639542,286.94158504858126L249.08332821639542,323.94158504858126A185,148,0,0,1,249,319.5L249,282.5A185,148,0,0,0,249.08332821639542,286.94158504858126" stroke="#09431a" stroke-width="1" fill="#09431a"></path><path d="M434,282.5L434,319.5L249.08332821639542,323.94158504858126L249.08332821639542,286.94158504858126" stroke="#09431a" stroke-width="1" fill="#09431a"></path><path d="M434,282.5L249.08332821639542,286.94158504858126A185,148,0,0,1,249.00925930860873,281.0192740266078L434,282.5A0,0,0,0,0,434,282.5" stroke="#0c5922" stroke-width="1" fill="#0c5922"></path></g><g><path d="M249.45352448402207,292.85678327298365L249.45352448402207,329.85678327298365A185,148,0,0,1,249.08332821639542,323.94158504858126L249.08332821639542,286.94158504858126A185,148,0,0,0,249.45352448402207,292.85678327298365" stroke="#8f7b0e" stroke-width="1" fill="#8f7b0e"></path><path d="M434,282.5L434,319.5L249.45352448402207,329.85678327298365L249.45352448402207,292.85678327298365" stroke="#8f7b0e" stroke-width="1" fill="#8f7b0e"></path><path d="M434,282.5L249.45352448402207,292.85678327298365A185,148,0,0,1,249.08332821639542,286.94158504858126L434,282.5A0,0,0,0,0,434,282.5" stroke="#bea413" stroke-width="1" fill="#bea413"></path></g><g><path d="M250.1192552755788,298.7553960437462L250.1192552755788,335.7553960437462A185,148,0,0,1,249.45352448402207,329.85678327298365L249.45352448402207,292.85678327298365A185,148,0,0,0,250.1192552755788,298.7553960437462" stroke="#4d6a15" stroke-width="1" fill="#4d6a15"></path><path d="M434,282.5L434,319.5L250.1192552755788,335.7553960437462L250.1192552755788,298.7553960437462" stroke="#4d6a15" stroke-width="1" fill="#4d6a15"></path><path d="M434,282.5L250.1192552755788,298.7553960437462A185,148,0,0,1,249.45352448402207,292.85678327298365L434,282.5A0,0,0,0,0,434,282.5" stroke="#668d1c" stroke-width="1" fill="#668d1c"></path></g><g><path d="M251.0794544832899,304.627977264908L251.0794544832899,341.627977264908A185,148,0,0,1,250.1192552755788,335.7553960437462L250.1192552755788,298.7553960437462A185,148,0,0,0,251.0794544832899,304.627977264908" stroke="#20596a" stroke-width="1" fill="#20596a"></path><path d="M434,282.5L434,319.5L251.0794544832899,341.627977264908L251.0794544832899,304.627977264908" stroke="#20596a" stroke-width="1" fill="#20596a"></path><path d="M434,282.5L251.0794544832899,304.627977264908A185,148,0,0,1,250.1192552755788,298.7553960437462L434,282.5A0,0,0,0,0,434,282.5" stroke="#2a778d" stroke-width="1" fill="#2a778d"></path></g><g><path d="M252.33258443478883,310.46512252768434L252.33258443478883,347.46512252768434A185,148,0,0,1,251.0794544832899,341.627977264908L251.0794544832899,304.627977264908A185,148,0,0,0,252.33258443478883,310.46512252768434" stroke="#7f930e" stroke-width="1" fill="#7f930e"></path><path d="M434,282.5L434,319.5L252.33258443478883,347.46512252768434L252.33258443478883,310.46512252768434" stroke="#7f930e" stroke-width="1" fill="#7f930e"></path><path d="M434,282.5L252.33258443478883,310.46512252768434A185,148,0,0,1,251.0794544832899,304.627977264908L434,282.5A0,0,0,0,0,434,282.5" stroke="#a9c413" stroke-width="1" fill="#a9c413"></path></g><g><path d="M253.87663835556205,316.25748417078046L253.87663835556205,353.25748417078046A185,148,0,0,1,252.33258443478883,347.46512252768434L252.33258443478883,310.46512252768434A185,148,0,0,0,253.87663835556205,316.25748417078046" stroke="#754328" stroke-width="1" fill="#754328"></path><path d="M434,282.5L434,319.5L253.87663835556205,353.25748417078046L253.87663835556205,316.25748417078046" stroke="#754328" stroke-width="1" fill="#754328"></path><path d="M434,282.5L253.87663835556205,316.25748417078046A185,148,0,0,1,252.33258443478883,310.46512252768434L434,282.5A0,0,0,0,0,434,282.5" stroke="#9c5935" stroke-width="1" fill="#9c5935"></path></g><g><path d="M255.70914358261703,321.99578624982576L255.70914358261703,358.99578624982576A185,148,0,0,1,253.87663835556205,353.25748417078046L253.87663835556205,316.25748417078046A185,148,0,0,0,255.70914358261703,321.99578624982576" stroke="#b72877" stroke-width="1" fill="#b72877"></path><path d="M434,282.5L434,319.5L255.70914358261703,358.99578624982576L255.70914358261703,321.99578624982576" stroke="#b72877" stroke-width="1" fill="#b72877"></path><path d="M434,282.5L255.70914358261703,321.99578624982576A185,148,0,0,1,253.87663835556205,316.25748417078046L434,282.5A0,0,0,0,0,434,282.5" stroke="#f4359e" stroke-width="1" fill="#f4359e"></path></g><g><path d="M258.2847414265624,328.797458449258L258.2847414265624,365.797458449258A185,148,0,0,1,255.70914358261703,358.99578624982576L255.70914358261703,321.99578624982576A185,148,0,0,0,258.2847414265624,328.797458449258" stroke="#8b0e62" stroke-width="1" fill="#8b0e62"></path><path d="M434,282.5L434,319.5L258.2847414265624,365.797458449258L258.2847414265624,328.797458449258" stroke="#8b0e62" stroke-width="1" fill="#8b0e62"></path><path d="M434,282.5L258.2847414265624,328.797458449258A185,148,0,0,1,255.70914358261703,321.99578624982576L434,282.5A0,0,0,0,0,434,282.5" stroke="#b91383" stroke-width="1" fill="#b91383"></path></g><g><path d="M261.26552013729236,335.4923735890204L261.26552013729236,372.4923735890204A185,148,0,0,1,258.2847414265624,365.797458449258L258.2847414265624,328.797458449258A185,148,0,0,0,261.26552013729236,335.4923735890204" stroke="#11a118" stroke-width="1" fill="#11a118"></path><path d="M434,282.5L434,319.5L261.26552013729236,372.4923735890204L261.26552013729236,335.4923735890204" stroke="#11a118" stroke-width="1" fill="#11a118"></path><path d="M434,282.5L261.26552013729236,335.4923735890204A185,148,0,0,1,258.2847414265624,328.797458449258L434,282.5A0,0,0,0,0,434,282.5" stroke="#16d620" stroke-width="1" fill="#16d620"></path></g><g><path d="M264.64460635325895,342.0650939004106L264.64460635325895,379.0650939004106A185,148,0,0,1,261.26552013729236,372.4923735890204L261.26552013729236,335.4923735890204A185,148,0,0,0,264.64460635325895,342.0650939004106" stroke="#89561a" stroke-width="1" fill="#89561a"></path><path d="M434,282.5L434,319.5L264.64460635325895,379.0650939004106L264.64460635325895,342.0650939004106" stroke="#89561a" stroke-width="1" fill="#89561a"></path><path d="M434,282.5L264.64460635325895,342.0650939004106A185,148,0,0,1,261.26552013729236,335.4923735890204L434,282.5A0,0,0,0,0,434,282.5" stroke="#b77322" stroke-width="1" fill="#b77322"></path></g><g><path d="M269.0798446983886,349.5586245026479L269.0798446983886,386.5586245026479A185,148,0,0,1,264.64460635325895,379.0650939004106L264.64460635325895,342.0650939004106A185,148,0,0,0,269.0798446983886,349.5586245026479" stroke="#2c2f81" stroke-width="1" fill="#2c2f81"></path><path d="M434,282.5L434,319.5L269.0798446983886,386.5586245026479L269.0798446983886,349.5586245026479" stroke="#2c2f81" stroke-width="1" fill="#2c2f81"></path><path d="M434,282.5L269.0798446983886,349.5586245026479A185,148,0,0,1,264.64460635325895,342.0650939004106L434,282.5A0,0,0,0,0,434,282.5" stroke="#3b3eac" stroke-width="1" fill="#3b3eac"></path></g><g><path d="M274.0326620166153,356.84170093726755L274.0326620166153,393.84170093726755A185,148,0,0,1,269.0798446983886,386.5586245026479L269.0798446983886,349.5586245026479A185,148,0,0,0,274.0326620166153,356.84170093726755" stroke="#40577d" stroke-width="1" fill="#40577d"></path><path d="M434,282.5L434,319.5L274.0326620166153,393.84170093726755L274.0326620166153,356.84170093726755" stroke="#40577d" stroke-width="1" fill="#40577d"></path><path d="M434,282.5L274.0326620166153,356.84170093726755A185,148,0,0,1,269.0798446983886,349.5586245026479L434,282.5A0,0,0,0,0,434,282.5" stroke="#5574a6" stroke-width="1" fill="#5574a6"></path></g><g><path d="M280.3067827668698,364.87823004276737L280.3067827668698,401.87823004276737A185,148,0,0,1,274.0326620166153,393.84170093726755L274.0326620166153,356.84170093726755A185,148,0,0,0,280.3067827668698,364.87823004276737" stroke="#266e4a" stroke-width="1" fill="#266e4a"></path><path d="M434,282.5L434,319.5L280.3067827668698,401.87823004276737L280.3067827668698,364.87823004276737" stroke="#266e4a" stroke-width="1" fill="#266e4a"></path><path d="M434,282.5L280.3067827668698,364.87823004276737A185,148,0,0,1,274.0326620166153,356.84170093726755L434,282.5A0,0,0,0,0,434,282.5" stroke="#329262" stroke-width="1" fill="#329262"></path></g><g><path d="M287.2108544222036,372.5771109325001L287.2108544222036,409.5771109325001A185,148,0,0,1,280.3067827668698,401.87823004276737L280.3067827668698,364.87823004276737A185,148,0,0,0,287.2108544222036,372.5771109325001" stroke="#4c0c4d" stroke-width="1" fill="#4c0c4d"></path><path d="M434,282.5L434,319.5L287.2108544222036,409.5771109325001L287.2108544222036,372.5771109325001" stroke="#4c0c4d" stroke-width="1" fill="#4c0c4d"></path><path d="M434,282.5L287.2108544222036,372.5771109325001A185,148,0,0,1,280.3067827668698,364.87823004276737L434,282.5A0,0,0,0,0,434,282.5" stroke="#651067" stroke-width="1" fill="#651067"></path></g><g><path d="M295.69559198307246,380.7955241238167L295.69559198307246,417.7955241238167A185,148,0,0,1,287.2108544222036,409.5771109325001L287.2108544222036,372.5771109325001A185,148,0,0,0,295.69559198307246,380.7955241238167" stroke="#680505" stroke-width="1" fill="#680505"></path><path d="M434,282.5L434,319.5L295.69559198307246,417.7955241238167L295.69559198307246,380.7955241238167" stroke="#680505" stroke-width="1" fill="#680505"></path><path d="M434,282.5L295.69559198307246,380.7955241238167A185,148,0,0,1,287.2108544222036,372.5771109325001L434,282.5A0,0,0,0,0,434,282.5" stroke="#8b0707" stroke-width="1" fill="#8b0707"></path></g><g><path d="M305.9624193433608,389.327346130757L305.9624193433608,426.327346130757A185,148,0,0,1,295.69559198307246,417.7955241238167L295.69559198307246,380.7955241238167A185,148,0,0,0,305.9624193433608,389.327346130757" stroke="#ad5600" stroke-width="1" fill="#ad5600"></path><path d="M434,282.5L434,319.5L305.9624193433608,426.327346130757L305.9624193433608,389.327346130757" stroke="#ad5600" stroke-width="1" fill="#ad5600"></path><path d="M434,282.5L305.9624193433608,389.327346130757A185,148,0,0,1,295.69559198307246,380.7955241238167L434,282.5A0,0,0,0,0,434,282.5" stroke="#e67300" stroke-width="1" fill="#e67300"></path></g><g><path d="M317.04908086612977,397.1751446861764L317.04908086612977,434.1751446861764A185,148,0,0,1,305.9624193433608,426.327346130757L305.9624193433608,389.327346130757A185,148,0,0,0,317.04908086612977,397.1751446861764" stroke="#4d2699" stroke-width="1" fill="#4d2699"></path><path d="M434,282.5L434,319.5L317.04908086612977,434.1751446861764L317.04908086612977,397.1751446861764" stroke="#4d2699" stroke-width="1" fill="#4d2699"></path><path d="M434,282.5L317.04908086612977,397.1751446861764A185,148,0,0,1,305.9624193433608,389.327346130757L434,282.5A0,0,0,0,0,434,282.5" stroke="#6633cc" stroke-width="1" fill="#6633cc"></path></g><g><path d="M331.33496074110985,405.6191675448675L331.33496074110985,442.6191675448675A185,148,0,0,1,317.04908086612977,434.1751446861764L317.04908086612977,397.1751446861764A185,148,0,0,0,331.33496074110985,405.6191675448675" stroke="#80800d" stroke-width="1" fill="#80800d"></path><path d="M434,282.5L434,319.5L331.33496074110985,442.6191675448675L331.33496074110985,405.6191675448675" stroke="#80800d" stroke-width="1" fill="#80800d"></path><path d="M434,282.5L331.33496074110985,405.6191675448675A185,148,0,0,1,317.04908086612977,397.1751446861764L434,282.5A0,0,0,0,0,434,282.5" stroke="#aaaa11" stroke-width="1" fill="#aaaa11"></path></g><g><path d="M347.87496451885704,413.48391538108024L347.87496451885704,450.48391538108024A185,148,0,0,1,331.33496074110985,442.6191675448675L331.33496074110985,405.6191675448675A185,148,0,0,0,347.87496451885704,413.48391538108024" stroke="#1a8073" stroke-width="1" fill="#1a8073"></path><path d="M434,282.5L434,319.5L347.87496451885704,450.48391538108024L347.87496451885704,413.48391538108024" stroke="#1a8073" stroke-width="1" fill="#1a8073"></path><path d="M434,282.5L347.87496451885704,413.48391538108024A185,148,0,0,1,331.33496074110985,405.6191675448675L434,282.5A0,0,0,0,0,434,282.5" stroke="#22aa99" stroke-width="1" fill="#22aa99"></path></g><g><path d="M368.1053095849752,420.79334566807313L368.1053095849752,457.79334566807313A185,148,0,0,1,347.87496451885704,450.48391538108024L347.87496451885704,413.48391538108024A185,148,0,0,0,368.1053095849752,420.79334566807313" stroke="#733373" stroke-width="1" fill="#733373"></path><path d="M434,282.5L434,319.5L368.1053095849752,457.79334566807313L368.1053095849752,420.79334566807313" stroke="#733373" stroke-width="1" fill="#733373"></path><path d="M434,282.5L368.1053095849752,420.79334566807313A185,148,0,0,1,347.87496451885704,413.48391538108024L434,282.5A0,0,0,0,0,434,282.5" stroke="#994499" stroke-width="1" fill="#994499"></path></g><g><path d="M392.16365847096733,426.6659499936734L392.16365847096733,463.6659499936734A185,148,0,0,1,368.1053095849752,457.79334566807313L368.1053095849752,420.79334566807313A185,148,0,0,0,392.16365847096733,426.6659499936734" stroke="#254a70" stroke-width="1" fill="#254a70"></path><path d="M434,282.5L434,319.5L392.16365847096733,463.6659499936734L392.16365847096733,426.6659499936734" stroke="#254a70" stroke-width="1" fill="#254a70"></path><path d="M434,282.5L392.16365847096733,426.6659499936734A185,148,0,0,1,368.1053095849752,420.79334566807313L434,282.5A0,0,0,0,0,434,282.5" stroke="#316395" stroke-width="1" fill="#316395"></path></g><g><path d="M416.99540312347807,429.8734710130791L416.99540312347807,466.8734710130791A185,148,0,0,1,392.16365847096733,463.6659499936734L392.16365847096733,426.6659499936734A185,148,0,0,0,416.99540312347807,429.8734710130791" stroke="#8a2323" stroke-width="1" fill="#8a2323"></path><path d="M434,282.5L434,319.5L416.99540312347807,466.8734710130791L416.99540312347807,429.8734710130791" stroke="#8a2323" stroke-width="1" fill="#8a2323"></path><path d="M434,282.5L416.99540312347807,429.8734710130791A185,148,0,0,1,392.16365847096733,426.6659499936734L434,282.5A0,0,0,0,0,434,282.5" stroke="#b82e2e" stroke-width="1" fill="#b82e2e"></path></g><g><path d="M443.6205379776374,430.2997461410991L443.6205379776374,467.2997461410991A185,148,0,0,1,416.99540312347807,466.8734710130791L416.99540312347807,429.8734710130791A185,148,0,0,0,443.6205379776374,430.2997461410991" stroke="#4d8000" stroke-width="1" fill="#4d8000"></path><path d="M434,282.5L443.6205379776374,430.2997461410991A185,148,0,0,1,416.99540312347807,429.8734710130791L434,282.5A0,0,0,0,0,434,282.5" stroke="#66aa00" stroke-width="1" fill="#66aa00"></path></g><g></g></svg>